<svg width="102" height="91" fill="none" xmlns="http://www.w3.org/2000/svg"><path d="M101.487 88.521c-12.41 0-24.287 1.417-36.696 2.479-.177 0-.71-6.728.177-6.905 4.078-1.062 8.51-1.77 12.764-2.301-15.423-5.489-29.605-15.049-42.191-24.61C18.345 44.085 4.34 26.912.084 5.312-.269 3.718.617 1.062.263 0 4.872 22.13 20.118 38.95 38.2 51.697 54.509 63.38 73.3 74.712 93.51 77.013c-1.95-1.77-3.9-3.541-5.142-4.958-3.722-4.249-7.268-8.675-10.104-13.632-.355-.708.532-3.01.177-3.54 5.141 5.488 9.75 11.507 15.246 16.641 3.545 3.364 7.623 5.666 8.154 10.8.178.885.355 6.196-.354 6.196z" fill="#FF6543"/></svg>