<svg width="102" height="91" viewBox="0 0 102 91" fill="none" xmlns="http://www.w3.org/2000/svg">
<path d="M101.487 88.5214C89.0776 88.5214 77.2002 89.9377 64.7909 91C64.6136 91 64.0818 84.2724 64.9682 84.0953C69.0455 83.0331 73.4774 82.3249 77.732 81.7938C62.3091 76.3054 48.127 66.7451 35.5405 57.1848C18.3448 44.0837 4.34005 26.9105 0.0854416 5.31128C-0.269112 3.7179 0.617264 1.06226 0.262711 0C4.87187 22.1304 20.1175 38.9494 38.1996 51.6965C54.5089 63.3813 73.3001 74.7121 93.5095 77.0136C91.5595 75.2432 89.6094 73.4728 88.3685 72.0564C84.6457 67.8074 81.1002 63.3813 78.2638 58.4241C77.9093 57.716 78.7957 55.4144 78.4411 54.8833C83.5821 60.3716 88.1912 66.3911 93.6868 71.5253C97.2323 74.8891 101.31 77.1907 101.841 82.3249C102.019 83.2101 102.196 88.5214 101.487 88.5214Z" fill="#FF6543"/>
</svg>
